<svg width="100" height="36" viewBox="0 0 100 36" fill="none" xmlns="http://www.w3.org/2000/svg">
<path d="M15.0541 35.8425C9.71354 35.8425 4.94651 32.6525 2.93934 27.6704C2.79597 27.312 2.97518 26.8819 3.33361 26.7385C3.69203 26.5951 4.12214 26.7743 4.26551 27.1328C6.05762 31.5414 10.287 34.4088 15.0541 34.4088C16.0218 34.4088 16.9895 34.3012 17.9214 34.0503C18.3157 33.9428 18.71 34.1937 18.7817 34.588C18.8533 34.9822 18.6383 35.3765 18.244 35.4482C17.2046 35.7349 16.1293 35.8425 15.0541 35.8425Z" fill="white"/>
<path d="M25.233 30.5377C25.0896 30.5377 24.9462 30.5018 24.8387 30.3943C24.5161 30.1793 24.4444 29.7133 24.6595 29.3907C26.0215 27.4552 26.7384 25.1613 26.7384 22.7599C26.7384 20.3585 26.0215 18.0646 24.6595 16.1291C24.4444 15.8065 24.5161 15.3405 24.8387 15.1255C25.1613 14.9104 25.6272 14.9821 25.8423 15.3047C27.3835 17.4911 28.1721 20.0717 28.1721 22.7599C28.1721 25.4481 27.3835 28.0287 25.8423 30.2151C25.6631 30.4302 25.448 30.5377 25.233 30.5377Z" fill="white"/>
<path d="M3.76356 17.6346C3.65603 17.6346 3.54851 17.5987 3.44098 17.5629C3.08256 17.3837 2.93919 16.9535 3.15424 16.5951C5.30478 12.4733 9.53418 9.78508 14.1937 9.57003C15.7349 9.49834 17.2403 9.7134 18.674 10.1435C19.0682 10.251 19.2474 10.6811 19.1399 11.0396C19.0324 11.4338 18.6023 11.613 18.2439 11.5055C16.9535 11.1112 15.5915 10.932 14.2295 10.9679C10.1077 11.1829 6.34421 13.5844 4.40872 17.2761C4.3012 17.4912 4.0503 17.6346 3.76356 17.6346Z" fill="white"/>
<path d="M46.2365 11.7562V18.0645H45.9856C44.982 17.3835 43.7633 16.9892 42.3297 16.9892C38.387 16.9892 36.5949 19.4265 36.5949 24.5878V34.5519H30.1433V11.3619H35.5196L35.8063 14.982H35.9139C37.2042 12.258 39.4623 10.896 42.8314 10.896C44.301 10.8602 45.5555 11.2186 46.2365 11.7562Z" fill="white"/>
<path d="M72.8317 22.9391C72.8317 29.9642 68.0289 35.0538 61.4697 35.0538C58.0647 35.0538 55.4124 33.7276 53.907 31.5054H53.7995L53.5486 34.552H48.1722V0H54.6238V13.3692H54.7314C56.3084 11.7563 58.5665 10.8602 61.4339 10.8602C68.0647 10.8602 72.8317 15.9498 72.8317 22.9391ZM66.3084 22.9391C66.3084 19.1757 63.9428 16.5592 60.3945 16.5592C56.8819 16.5592 54.5163 19.1757 54.5163 22.9391C54.5163 26.7025 56.8819 29.319 60.3945 29.319C63.9428 29.319 66.3084 26.7025 66.3084 22.9391Z" fill="white"/>
<path d="M81.9713 6.30827C81.9713 8.67386 80.2867 10.3226 77.9569 10.3226C75.6272 10.3226 73.9426 8.7097 73.9426 6.30827C73.9426 3.97852 75.6272 2.36561 77.9569 2.36561C80.2867 2.36561 81.9713 3.97852 81.9713 6.30827ZM74.7311 11.362H81.1827V34.552H74.7311V11.362Z" fill="white"/>
<path d="M100 34.2652C98.853 34.8028 97.4193 35.0537 95.448 35.0537C89.8207 35.0537 86.81 32.0071 86.81 26.129V16.8458H82.9749V11.3619H86.9892L87.8136 4.83862H93.2616V11.3619H99.9283V16.8458H93.2616V25.8781C93.2616 28.1003 94.4444 29.3189 96.4874 29.3189C97.6702 29.3189 98.7455 29.0322 99.7491 27.9928H100V34.2652Z" fill="white"/>
<path d="M15.2331 27.5986C17.8263 27.5986 19.9285 25.4965 19.9285 22.9033C19.9285 20.3101 17.8263 18.208 15.2331 18.208C12.64 18.208 10.5378 20.3101 10.5378 22.9033C10.5378 25.4965 12.64 27.5986 15.2331 27.5986Z" fill="white"/>
<path d="M3.15413 25.448C4.8961 25.448 6.30825 24.0359 6.30825 22.2939C6.30825 20.5519 4.8961 19.1398 3.15413 19.1398C1.41215 19.1398 0 20.5519 0 22.2939C0 24.0359 1.41215 25.448 3.15413 25.448Z" fill="white"/>
<path d="M21.9715 14.301C22.8029 14.301 23.4768 13.627 23.4768 12.7956C23.4768 11.9642 22.8029 11.2903 21.9715 11.2903C21.1401 11.2903 20.4661 11.9642 20.4661 12.7956C20.4661 13.627 21.1401 14.301 21.9715 14.301Z" fill="white"/>
<path d="M22.1504 35.4838C23.4767 35.4838 24.5519 34.4086 24.5519 33.0824C24.5519 31.7561 23.4767 30.6809 22.1504 30.6809C20.8241 30.6809 19.749 31.7561 19.749 33.0824C19.749 34.4086 20.8241 35.4838 22.1504 35.4838Z" fill="white"/>
</svg>
